<svg viewBox="0 0 21 21" fill="none" xmlns="http://www.w3.org/2000/svg">
<g id="Frame">
<path id="Vector" d="M17.2225 5.77051C16.8554 4.90303 16.3304 4.12373 15.6618 3.45518C14.9933 2.78662 14.214 2.26162 13.3465 1.89453C12.4483 1.51309 11.4926 1.32031 10.5103 1.32031C9.52589 1.32031 8.57228 1.51309 7.67404 1.89248C6.80656 2.25957 6.02726 2.78457 5.3587 3.45312C4.69015 4.12168 4.16515 4.90098 3.79806 5.76846C3.41866 6.6667 3.22589 7.62031 3.22589 8.60469C3.22589 10.272 4.40304 12.6283 6.72247 15.6081C8.41437 17.786 10.1329 19.523 10.1514 19.5395C10.2457 19.6358 10.377 19.6892 10.5103 19.6892C10.6456 19.6892 10.7748 19.6358 10.8692 19.5395C10.8856 19.523 12.6041 17.784 14.2981 15.6102C16.6195 12.6324 17.7967 10.2761 17.7967 8.60674C17.7967 7.62441 17.6039 6.66875 17.2225 5.77051ZM10.4734 11.3999C8.99884 11.3999 7.79913 10.2002 7.79913 8.72568C7.79913 7.25117 8.99884 6.05147 10.4734 6.05147C11.9479 6.05147 13.1476 7.25117 13.1476 8.72568C13.1476 10.2002 11.9479 11.3999 10.4734 11.3999Z" fill="#878C99"/>
</g>
</svg>
