<svg viewBox="0 0 36 36" fill="none" xmlns="http://www.w3.org/2000/svg">
<g id="Frame 51448044">
<path id="Rectangle 34630563" d="M3.45167 14.4024C3.21109 12.3238 4.83602 10.5 6.92846 10.5H29.0715C31.164 10.5 32.7889 12.3238 32.5483 14.4024L30.5807 31.4024C30.3764 33.1679 28.8813 34.5 27.1039 34.5H8.89605C7.11873 34.5 5.6236 33.1679 5.41926 31.4024L3.45167 14.4024Z" fill="url(#paint0_linear_97_877)"/>
<g id="Ellipse 2136">
<path d="M24.0635 14.5C24.6591 13.4704 25 12.275 25 11C25 7.13401 21.866 4 18 4C14.134 4 11 7.13401 11 11C11 12.275 11.3409 13.4704 11.9365 14.5" stroke="#FFC800" stroke-width="3" stroke-linecap="round"/>
</g>
<path id="Ellipse 2137" d="M23.3029 25.8032C20.374 28.7322 15.6252 28.7322 12.6963 25.8032" stroke="white" stroke-width="2.5" stroke-linecap="round"/>
</g>
<defs>
<linearGradient id="paint0_linear_97_877" x1="18" y1="10.5" x2="18" y2="32.5" gradientUnits="userSpaceOnUse">
<stop stop-color="#FFC21C"/>
<stop offset="1" stop-color="#FF6200"/>
</linearGradient>
</defs>
</svg>
