<svg viewBox="0 0 29 31" fill="none" xmlns="http://www.w3.org/2000/svg">
<g id="Group 51448141">
<path id="Vector" d="M21.8516 6.14496C22.7482 6.14797 23.5053 5.84719 24.1258 5.24262C24.7463 4.63805 25.0566 3.90113 25.0566 3.03789C25.0566 2.17164 24.7463 1.44676 24.1258 0.869258C23.5053 0.28875 22.7482 0 21.8516 0C20.958 0.00300781 20.1979 0.291758 19.5774 0.86625C18.9568 1.44375 18.6466 2.16863 18.6466 3.03488C18.6466 3.90113 18.9568 4.63805 19.5774 5.23961C20.1979 5.84418 20.958 6.14496 21.8516 6.14496ZM28.5439 20.1854L24.9852 9.83254C24.4392 8.38578 23.4184 7.66391 21.926 7.66391H21.7771C20.2848 7.66391 19.2671 8.38578 18.7179 9.83254L15.1592 20.1854C14.9297 20.8532 15.4416 21.545 16.1707 21.545H19.4657V29.7142C19.4657 30.3157 19.9683 30.8 20.5857 30.8H23.1174C23.738 30.8 24.2375 30.3127 24.2375 29.7142V21.545H27.5325C28.2616 21.545 28.7766 20.8532 28.5439 20.1854Z" fill="url(#paint0_linear_97_791)"/>
<g id="Group 51448140">
<path id="Vector_2" d="M6.11173 6.14497C6.98502 6.14797 7.72792 5.84719 8.33437 5.24262C8.94081 4.63805 9.24404 3.90114 9.24404 3.0379C9.24404 2.17165 8.94081 1.44676 8.33437 0.869264C7.72792 0.288756 6.98502 6.10352e-06 6.11173 6.10352e-06C5.23845 6.10352e-06 4.49555 0.288756 3.8891 0.866256C3.28265 1.44376 2.97943 2.16864 2.97943 3.03489C2.97943 3.90114 3.28265 4.63805 3.8891 5.23962C4.49555 5.84419 5.23542 6.14497 6.11173 6.14497ZM9.08504 7.66391H3.1354C2.31063 7.66391 1.57986 7.97672 0.949152 8.60536C0.318446 9.23098 6.08961e-05 9.95587 6.08961e-05 10.774V18.1401C6.08961e-05 18.7417 0.491284 19.232 1.10076 19.232H2.65202V29.7202C2.65202 30.3188 3.14021 30.8 3.74059 30.8H8.47075C9.07416 30.8 9.55932 30.3157 9.55932 29.7202V19.232H11.1106C11.717 19.232 12.2113 18.7447 12.2113 18.1401V10.774C12.2113 9.95587 11.8959 9.23098 11.2622 8.60536C10.6406 7.97672 9.9098 7.66391 9.08504 7.66391Z" fill="url(#paint1_linear_97_791)"/>
</g>
</g>
<defs>
<linearGradient id="paint0_linear_97_791" x1="21.8521" y1="0" x2="21.8521" y2="30.8" gradientUnits="userSpaceOnUse">
<stop stop-color="#FF99B1"/>
<stop offset="1" stop-color="#FF4484"/>
</linearGradient>
<linearGradient id="paint1_linear_97_791" x1="13.6699" y1="6.10352e-06" x2="13.6699" y2="20.9417" gradientUnits="userSpaceOnUse">
<stop stop-color="#5CCFFE"/>
<stop offset="1" stop-color="#2D95FF"/>
</linearGradient>
</defs>
</svg>
